<?xml version="1.0" encoding="UTF-8"?>
<svg version="1.1" xmlns="http://www.w3.org/2000/svg" width="899" height="969">
<path d="M0 0 C296.67 0 593.34 0 899 0 C899 319.77 899 639.54 899 969 C602.33 969 305.66 969 0 969 C0 649.23 0 329.46 0 0 Z " fill="#1F1F23" transform="translate(0,0)"/>
<path d="M0 0 C1.216875 0.20496094 2.43375 0.40992188 3.6875 0.62109375 C13.17834339 2.53112598 22.08759127 6.30471557 31 10 C32.79824219 10.7425 32.79824219 10.7425 34.6328125 11.5 C50.5277915 18.58082591 64.34515908 29.19930465 77 41 C78.37058799 42.19258955 79.74539029 43.3803586 81.125 44.5625 C88.92668793 51.39483993 95.57420065 58.86785394 102 67 C103.10408203 68.37865234 103.10408203 68.37865234 104.23046875 69.78515625 C114.12629744 82.36628519 123.18624717 95.64377456 132 109 C131.67 109.66 131.34 110.32 131 111 C129.95779297 110.14341797 129.95779297 110.14341797 128.89453125 109.26953125 C116.76845832 99.60248451 103.54508501 91.52310358 89.95092773 84.08569336 C88.38522976 83.21438077 86.85236083 82.28419577 85.33203125 81.3359375 C80.84069346 78.76301033 75.86078244 77.31624247 70.97216797 75.66601562 C69.67257343 75.22713299 68.37465973 74.78323656 67.07861328 74.33398438 C42.55550908 65.87042385 15.53856209 62.8958862 -9 73 C-9.99 73 -10.98 73 -12 73 C-12.09796875 72.04480469 -12.1959375 71.08960937 -12.296875 70.10546875 C-14.12669233 54.28385855 -18.9953609 40.28180326 -31.66503906 29.83642578 C-45.4434347 19.1820588 -58.66691242 14.32565798 -76 15 C-75.01773438 15.23783203 -75.01773438 15.23783203 -74.015625 15.48046875 C-57.87426089 19.60700392 -41.73934922 26.83949882 -32 41 C-25.75674887 51.88852727 -20.21974697 64.1050093 -22.25390625 76.95849609 C-24.45097308 82.97023458 -31.69069464 85.93058 -36.97363281 88.83300781 C-39.78130467 90.44995619 -42.24780697 92.38615256 -44.75 94.4375 C-45.48734375 95.03433594 -46.2246875 95.63117188 -46.984375 96.24609375 C-49.07907739 98.0168615 -49.07907739 98.0168615 -51.140625 100.22265625 C-53 102 -53 102 -55 102 C-55.25523437 101.18208984 -55.25523437 101.18208984 -55.515625 100.34765625 C-61.84407213 80.65541386 -73.22773365 67.94784818 -91.44140625 58.1484375 C-106.93685413 50.24961471 -121.75570947 48.31855713 -139 49 C-138.410979 49.13051758 -137.82195801 49.26103516 -137.21508789 49.39550781 C-134.49529081 50.00399214 -131.77898499 50.62690284 -129.0625 51.25 C-128.13630859 51.45496094 -127.21011719 51.65992188 -126.25585938 51.87109375 C-120.12672043 53.2904733 -114.63159892 55.20153558 -109 58 C-108.33798584 58.32532715 -107.67597168 58.6506543 -106.99389648 58.98583984 C-96.97302768 64.05458615 -88.82193856 69.96244905 -81 78 C-80.31292969 78.68964844 -79.62585938 79.37929687 -78.91796875 80.08984375 C-74.19017805 85.12664038 -71.00122282 90.80656745 -68 97 C-67.48566406 98.05380859 -67.48566406 98.05380859 -66.9609375 99.12890625 C-64.72270866 104.30611781 -64.20724655 109.41595598 -65 115 C-66.33576622 117.85932012 -68.1891839 120.06435282 -70.25 122.4375 C-71.35431949 123.79931106 -72.45171953 125.16675567 -73.54296875 126.5390625 C-74.11192871 127.25352539 -74.68088867 127.96798828 -75.26708984 128.70410156 C-78.88687782 133.49988715 -81.94835912 138.66935732 -85.07714844 143.79272461 C-85.78339355 144.94140015 -85.78339355 144.94140015 -86.50390625 146.11328125 C-86.91455322 146.79173096 -87.3252002 147.47018066 -87.74829102 148.16918945 C-89.0082762 150.01210518 -90.37284338 151.47806913 -92 153 C-92.30550781 152.28457031 -92.61101562 151.56914062 -92.92578125 150.83203125 C-100.76085723 133.77142919 -113.8335166 122.15778041 -130 113 C-130.83917969 112.52433594 -131.67835938 112.04867187 -132.54296875 111.55859375 C-148.42526323 103.50382119 -166.50588586 102.12917328 -184 102 C-184 102.66 -184 103.32 -184 104 C-183.19820312 104.06316406 -182.39640625 104.12632813 -181.5703125 104.19140625 C-170.89251233 105.34150944 -161.8164652 108.82660402 -152 113 C-150.80375 113.48726563 -149.6075 113.97453125 -148.375 114.4765625 C-126.44161924 124.37704687 -111.34815268 141.23035595 -101.08203125 162.52734375 C-98.94468587 169.38691068 -101.44569361 174.51561841 -104.5625 180.625 C-109.41174842 190.48283566 -113.22386877 200.69304374 -117 211 C-120.52413502 209.82528833 -120.65347697 209.27202579 -122.4375 206.1875 C-130.85151037 193.20647178 -144.13821331 182.71454016 -158 176 C-158 175.34 -158 174.68 -158 174 C-159.32 174 -160.64 174 -162 174 C-162 173.34 -162 172.68 -162 172 C-162.68964844 171.87496094 -163.37929688 171.74992188 -164.08984375 171.62109375 C-167.31223409 170.93336212 -170.41281705 170.029668 -173.5625 169.0625 C-175.23505859 168.55396484 -175.23505859 168.55396484 -176.94140625 168.03515625 C-180 167 -180 167 -181.90234375 165.93359375 C-188.01325461 163.21384013 -195.90492719 163.72986878 -202.5 163.4375 C-203.4178125 163.39431641 -204.335625 163.35113281 -205.28125 163.30664062 C-207.52072061 163.20166544 -209.76028092 163.09950752 -212 163 C-212 163.66 -212 164.32 -212 165 C-210.783125 165.2475 -209.56625 165.495 -208.3125 165.75 C-201.0752923 167.34931935 -194.0264793 169.65784023 -187 172 C-187 172.66 -187 173.32 -187 174 C-186.29746094 174.10441406 -185.59492187 174.20882812 -184.87109375 174.31640625 C-163.3472667 179.44112698 -139.76937947 202.87223372 -128.375 220.6875 C-125.43031458 225.76022731 -123.56090857 229.22247116 -125 235 C-125.86332243 238.18565976 -126.81430596 241.32090352 -127.84375 244.45703125 C-129.07173482 248.21980906 -130.17623469 252.00365372 -131.25 255.8125 C-131.75273438 257.58560547 -131.75273438 257.58560547 -132.265625 259.39453125 C-132.50796875 260.25433594 -132.7503125 261.11414063 -133 262 C-137 262 -137 262 -139.1640625 260.234375 C-139.97617187 259.41453125 -140.78828125 258.5946875 -141.625 257.75 C-148.95775286 250.6996201 -157.43124805 245.41357634 -166 240 C-166.60714844 239.60506348 -167.21429687 239.21012695 -167.83984375 238.80322266 C-178.18841018 232.09637172 -189.26178132 228.51185421 -201 225 C-202.16917969 224.64808594 -203.33835937 224.29617187 -204.54296875 223.93359375 C-214.14108542 221.19316596 -222.97738251 220.86960198 -232.9375 220.9375 C-234.19369141 220.94201172 -235.44988281 220.94652344 -236.74414062 220.95117188 C-239.82947663 220.96290319 -242.91471316 220.979319 -246 221 C-241.63809757 222.5003937 -237.49243133 223.50281884 -232.9375 224.25 C-218.22111228 226.84895907 -203.775837 231.22386055 -190 237 C-190 237.66 -190 238.32 -190 239 C-189.30777344 239.09410156 -188.61554688 239.18820313 -187.90234375 239.28515625 C-173.05911685 242.94102506 -157.77695458 256.72700373 -147 267 C-146.04867187 267.83917969 -146.04867187 267.83917969 -145.078125 268.6953125 C-138.67071599 274.56404553 -133.04700044 282.4588271 -132.0625 291.25 C-132.0315625 293.10625 -132.0315625 293.10625 -132 295 C-135.56151028 293.67552376 -138.6596873 292.08105893 -141.875 290.0625 C-145.82523393 287.65978039 -149.67442991 285.66951828 -154 284 C-154.82113281 283.68289063 -155.64226562 283.36578125 -156.48828125 283.0390625 C-165.48765468 279.65315962 -174.40276322 276.9053997 -184 276 C-184 276.66 -184 277.32 -184 278 C-183.1184021 278.19795166 -183.1184021 278.19795166 -182.21899414 278.39990234 C-165.19904913 283.00272167 -146.62897018 296.18877156 -137 311 C-137 311.66 -137 312.32 -137 313 C-141.29 313.33 -145.58 313.66 -150 314 C-148.515 315.010625 -147.03 316.02125 -145.5 317.0625 C-140.69772831 320.4348818 -136.28624694 323.99787928 -132 328 C-131.195625 328.72832031 -130.39125 329.45664062 -129.5625 330.20703125 C-122.97976266 336.41848615 -118.3312366 343.07282976 -114 351 C-113.59007812 351.73605469 -113.18015625 352.47210938 -112.7578125 353.23046875 C-107.39534255 363.97619342 -105.6389738 376.12826834 -105.5 388 C-105.47244629 389.28922363 -105.47244629 389.28922363 -105.44433594 390.60449219 C-105.50199754 396.55747585 -106.57445838 403.57445838 -111 408 C-112.58103549 408.0973061 -114.1659962 408.13204116 -115.75 408.140625 C-140.51217348 408.52847596 -158.28220158 414.18974791 -177 431 C-177.70640625 431.62390625 -178.4128125 432.2478125 -179.140625 432.890625 C-200.69454813 453.08682069 -212.6105972 486.10879036 -215.6875 514.8125 C-215.87747559 516.56095215 -215.87747559 516.56095215 -216.07128906 518.34472656 C-217.70553617 534.56826323 -217.43568516 550.77163029 -216 567 C-215.67 567 -215.34 567 -215 567 C-214.95512451 566.38181396 -214.91024902 565.76362793 -214.86401367 565.12670898 C-212.83436797 537.89204846 -208.51652965 502.61328431 -187.4375 482.5625 C-182.46683907 479.37617889 -178.07232695 478.70105287 -172.25 478.5 C-159.88826077 477.84350085 -151.86371405 475.91354137 -142.84765625 466.83203125 C-139.56128802 463.16774722 -139.56128802 463.16774722 -137 459 C-136.34 459 -135.68 459 -135 459 C-134.8659375 458.26007813 -134.731875 457.52015625 -134.59375 456.7578125 C-134.07029553 454.32650424 -133.35789418 452.19989322 -132.5 449.875 C-130.58598928 443.88804702 -130.62430567 437.83694896 -130.73046875 431.60107422 C-130.70013598 429.26592511 -130.61030993 427.25554244 -130 425 C-125.04743502 420.61756386 -119.55887063 419 -113 419 C-112.86948242 419.589021 -112.73896484 420.17804199 -112.60449219 420.78491211 C-111.99600786 423.50470919 -111.37309716 426.22101501 -110.75 428.9375 C-110.54503906 429.86369141 -110.34007812 430.78988281 -110.12890625 431.74414062 C-108.70639657 437.88679605 -106.70313067 443.31828193 -104 449 C-103.27683594 450.77117187 -103.27683594 450.77117187 -102.5390625 452.578125 C-100.76691347 456.51823299 -98.67496314 460.10012618 -96.375 463.75 C-95.72011597 464.79389893 -95.72011597 464.79389893 -95.05200195 465.85888672 C-91.14065562 471.98179199 -86.76568299 477.51195954 -82 483 C-80.97641052 484.22687243 -79.95503263 485.45559954 -78.9375 486.6875 C-78.298125 487.450625 -77.65875 488.21375 -77 489 C-90.98489347 487.48811962 -102.22359102 479.42968382 -113 471 C-112.74925899 479.36221283 -111.78635853 486.78365386 -109.09765625 494.71484375 C-107.95490423 498.13496634 -107.03990466 501.57514376 -106.125 505.0625 C-104.47539808 510.96807487 -102.13651341 516.11966636 -99.171875 521.4765625 C-98 524 -98 524 -98 528 C-97.34 528 -96.68 528 -96 528 C-89.83554757 541.79422553 -85.82460553 555.21887581 -85.8125 570.375 C-85.80025391 571.17421875 -85.78800781 571.9734375 -85.77539062 572.796875 C-85.7616986 578.43798951 -86.55954636 583.54994369 -88 589 C-88.66 589 -89.32 589 -90 589 C-90.56267578 587.54980469 -90.56267578 587.54980469 -91.13671875 586.0703125 C-97.28557179 570.35297758 -104.73176419 557.56794325 -116.1875 545.0625 C-116.67420166 544.53100342 -117.16090332 543.99950684 -117.66235352 543.4519043 C-120.89652912 539.99668201 -124.31223186 536.96660459 -128 534 C-127.70867187 534.69480469 -127.41734375 535.38960937 -127.1171875 536.10546875 C-122.92471013 546.50755883 -119.79560194 557.1471039 -117 568 C-116.81630859 568.70044434 -116.63261719 569.40088867 -116.44335938 570.12255859 C-110.13565272 595.23401627 -112.58342542 624.66898685 -121 649 C-121.43789535 650.41103357 -121.86982866 651.82392645 -122.296875 653.23828125 C-122.51746582 653.96619873 -122.73805664 654.69411621 -122.96533203 655.4440918 C-123.39528835 656.86555732 -123.82343774 658.28757103 -124.24951172 659.71020508 C-125.2184261 662.85465836 -126.15876109 665.23814163 -128 668 C-128.75535166 670.21367658 -129.45900589 672.44531982 -130.125 674.6875 C-130.47820312 675.86699219 -130.83140625 677.04648437 -131.1953125 678.26171875 C-131.46085937 679.16535156 -131.72640625 680.06898438 -132 681 C-132.66 681 -133.32 681 -134 681 C-134.08302368 679.05565063 -134.08302368 679.05565063 -134.16772461 677.07202148 C-134.3748403 672.2430898 -134.58652525 667.41436721 -134.79956055 662.58569336 C-134.8909687 660.49948425 -134.98115304 658.41322114 -135.07006836 656.3269043 C-135.198406 653.32064879 -135.33120615 650.31461776 -135.46484375 647.30859375 C-135.50343002 646.38227646 -135.5420163 645.45595917 -135.58177185 644.50157166 C-135.36846714 636.22438275 -135.36846714 636.22438275 -138 629 C-138.30953147 627.507132 -138.56480884 626.00294805 -138.796875 624.49609375 C-139.02431396 623.06076294 -139.02431396 623.06076294 -139.25634766 621.59643555 C-139.50070557 620.03276245 -139.50070557 620.03276245 -139.75 618.4375 C-141.32301865 608.65810055 -143.16721291 598.96826319 -145.24902344 589.28491211 C-146.26007846 584.57908187 -147.21522205 579.87725452 -148.05078125 575.13671875 C-148.69052472 571.54630217 -149.45814139 568.10575331 -150.5625 564.625 C-152.32175538 558.48537641 -152.70690313 552.35717004 -153 546 C-153.99 546 -154.98 546 -156 546 C-156.25910156 546.87527344 -156.51820313 547.75054688 -156.78515625 548.65234375 C-159.78755921 556.92584643 -165.71049446 563.80975006 -171.4375 570.375 C-189.6750653 591.40720862 -197.78400056 615.5119488 -200 643 C-200.24696476 645.97121525 -200.49563449 648.94226612 -200.74731445 651.91308594 C-200.91039316 653.86498837 -201.06695939 655.81745102 -201.21557617 657.77050781 C-202.6780918 675.93852375 -202.6780918 675.93852375 -207 682 C-207.474375 682.96035156 -207.94875 683.92070313 -208.4375 684.91015625 C-215.49006964 699.1387155 -225.18914678 708.36980001 -239 716 C-240.06605469 716.62261719 -241.13210938 717.24523437 -242.23046875 717.88671875 C-249.66633431 721.697933 -256.09639372 722.54740523 -264.375 722.625 C-265.7662207 722.6415564 -265.7662207 722.6415564 -267.18554688 722.65844727 C-274.64606521 722.50201271 -279.99671727 720.8277354 -285.47265625 715.671875 C-288.8915078 709.69107076 -287.79193091 701.06245796 -286.25 694.5 C-282.3664067 684.64307035 -272.38361753 674.60891462 -263 670 C-260.5101322 668.96453117 -257.99992237 667.99997039 -255.48046875 667.0390625 C-247.191419 663.56679914 -240.86736832 658.2302432 -237 650 C-236.04509008 644.85989892 -236.28067016 639.57992395 -239 635 C-242.88455341 632.41029773 -244.39133985 632.16893014 -249 633 C-251.17127782 635.07841257 -252.98723498 637.32647847 -254.875 639.6640625 C-258.01787462 643.11891365 -261.70400379 645.22634181 -266 647 C-266.66 647 -267.32 647 -268 647 C-268 647.66 -268 648.32 -268 649 C-268.88042969 649.33773437 -269.76085937 649.67546875 -270.66796875 650.0234375 C-272.41013672 650.69246094 -272.41013672 650.69246094 -274.1875 651.375 C-275.33605469 651.81585937 -276.48460937 652.25671875 -277.66796875 652.7109375 C-279.6875912 653.49226858 -281.69861979 654.29709085 -283.69140625 655.14453125 C-290.45166252 657.64960083 -296.6292426 655.5020798 -303 653 C-303.94101562 652.64808594 -304.88203125 652.29617188 -305.8515625 651.93359375 C-316.34702011 647.82490685 -325.01878547 642.95027503 -332 634 C-334.87470493 632.56264754 -336.81894588 632.61827351 -340 633 C-342.69377889 635.64515473 -343.88634202 637.33978083 -344.53125 641.0859375 C-344.4785972 650.3008025 -344.4785972 650.3008025 -340 658 C-339.53335938 658.55816406 -339.06671875 659.11632812 -338.5859375 659.69140625 C-334.09596187 664.27364166 -328.94314465 666.45364784 -323.125 668.875 C-311.33387084 673.80616297 -301.64507368 681.75920881 -296.125 693.5625 C-293.98789191 700.03819498 -293.32136776 708.8071497 -295.87890625 715.1953125 C-298.99979466 719.29469728 -304.01786947 721.55413433 -309.02807617 722.30322266 C-311.21557615 722.43897222 -313.37101469 722.46758525 -315.5625 722.4375 C-316.34971436 722.42920166 -317.13692871 722.42090332 -317.94799805 722.41235352 C-333.14645221 721.97995849 -347.85091257 715.80337241 -358.87890625 705.28125 C-373.3179736 689.75193999 -380.57765665 671.0910584 -381.2902832 650.11352539 C-381.91390818 632.25484713 -383.71455069 614.08994906 -392 598 C-392.556875 596.80375 -393.11375 595.6075 -393.6875 594.375 C-398.4458604 584.96520865 -404.70799682 577.02326434 -411.62670898 569.15966797 C-416.89686883 563.10466229 -421.31292416 556.61431866 -424.8125 549.375 C-425.77083333 546.86458333 -425.77083333 546.86458333 -428 546 C-428.18949219 547.71896484 -428.18949219 547.71896484 -428.3828125 549.47265625 C-428.93355607 553.8718413 -429.8602667 558.12560212 -430.875 562.4375 C-432.60463891 569.98558757 -434.03704442 577.55174635 -435.33984375 585.18359375 C-436.13974444 589.80787169 -437.04066103 594.40645928 -438 599 C-438.66 599 -439.32 599 -440 599 C-440.05478516 599.65991943 -440.10957031 600.31983887 -440.16601562 600.99975586 C-440.76137307 607.88327381 -441.56011428 614.71808467 -442.5 621.5625 C-442.63019531 622.54541016 -442.76039063 623.52832031 -442.89453125 624.54101562 C-443.08595703 625.94577148 -443.08595703 625.94577148 -443.28125 627.37890625 C-443.39533203 628.2201001 -443.50941406 629.06129395 -443.62695312 629.92797852 C-444 632 -444 632 -445 634 C-445.95541886 639.93498181 -446.23182524 645.97558485 -446.53515625 651.97265625 C-446.57813339 652.78117538 -446.62111053 653.58969452 -446.66539001 654.42271423 C-446.80019546 656.96918834 -446.93141263 659.51583207 -447.0625 662.0625 C-447.15405813 663.80404903 -447.2458529 665.54558563 -447.33789062 667.28710938 C-447.5613257 671.52460109 -447.7815461 675.76224869 -448 680 C-451.22977593 677.05621696 -452.24793361 673.90598645 -453.5 669.8125 C-455.42241465 663.73249825 -455.42241465 663.73249825 -457.625 657.75 C-459.10299252 653.71911131 -460.20223748 649.67476702 -461.25390625 645.515625 C-461.89872055 643.04515924 -461.89872055 643.04515924 -462.9934082 641.10205078 C-475.7418555 614.47965659 -467.13860927 571.67688192 -458 545 C-456.72348311 541.64203591 -455.38887334 538.31297547 -454 535 C-470.14916687 548.81313924 -481.93727932 563.66792532 -489 584 C-489.5997634 585.60581815 -490.20320312 587.21027487 -490.8125 588.8125 C-491.204375 589.864375 -491.59625 590.91625 -492 592 C-498.65178233 580.47024396 -496.0329121 560.05866828 -493.125 547.57421875 C-491.3746091 542.013081 -489.09468744 536.7350047 -486.62109375 531.4609375 C-485.31195828 528.66601213 -484.1083896 525.87850435 -483 523 C-482.34 523 -481.68 523 -481 523 C-480.88140625 522.11828125 -480.7628125 521.2365625 -480.640625 520.328125 C-480.02421889 517.12582011 -479.11145055 514.69693726 -477.75 511.75 C-472.09237295 498.46115507 -469.21606316 485.41730571 -469 471 C-469.75023437 471.59167969 -470.50046875 472.18335938 -471.2734375 472.79296875 C-490.97063622 488 -490.97063622 488 -502 488 C-500.42103644 484.30712347 -498.0993665 481.7326235 -495.4375 478.75 C-489.44115002 471.83708087 -485.23903519 464.06850176 -481 456 C-480.34 456 -479.68 456 -479 456 C-478.7525 454.88625 -478.505 453.7725 -478.25 452.625 C-477.44548932 449.38996057 -476.4041972 446.38962398 -475.125 443.3125 C-471.88696548 435.46602685 -469.24625714 427.40908859 -468 419 C-462.65551435 418.66840782 -458.94176668 420.16701164 -454.33203125 422.77734375 C-451.2542681 425.7107562 -451.17253437 427.48914098 -450.9375 431.6875 C-450.9375 434.12508903 -450.95742852 436.56278275 -451 439 C-450.24346732 450.41103456 -444.90876786 461.87623558 -436.5 469.6875 C-429.45275748 475.28634552 -423.04147361 477.97604829 -414.06005859 478.23852539 C-405.74308469 478.51226459 -398.57210329 478.88415649 -392.12109375 484.69140625 C-383.89165182 493.48962171 -379.56566276 503.91961236 -375.66845703 515.11035156 C-375.08894491 516.74856332 -374.46803014 518.37201654 -373.83984375 519.9921875 C-370.5675836 528.77627749 -369.49566505 537.87481797 -368.32543945 547.12744141 C-368.07785178 549.08384524 -368.07785178 549.08384524 -367 551 C-366.92818179 553.71760108 -366.90700494 556.40859388 -366.9375 559.125 C-366.94426758 560.25615234 -366.94426758 560.25615234 -366.95117188 561.41015625 C-366.96296501 563.27347127 -366.98090058 565.13674555 -367 567 C-366.34 567 -365.68 567 -365 567 C-365.01160156 566.41992188 -365.02320313 565.83984375 -365.03515625 565.2421875 C-365.04417969 564.46101562 -365.05320312 563.67984375 -365.0625 562.875 C-365.07410156 562.10929688 -365.08570313 561.34359375 -365.09765625 560.5546875 C-365 558 -365 558 -364.5065918 555.20654297 C-362.13120158 540.1711815 -363.40542899 523.80780331 -366.58544922 508.97607422 C-366.99481796 507.02470166 -367.34355912 505.06092903 -367.69140625 503.09765625 C-369.88884477 490.93012522 -373.47985658 479.09124202 -379 468 C-379.2882666 467.40493652 -379.5765332 466.80987305 -379.87353516 466.19677734 C-392.33557678 440.65174382 -410.43587863 421.81075026 -437.5546875 411.87109375 C-444.3986195 409.64588089 -451.09698678 409.12279548 -458.25 408.75 C-460.10044922 408.63398437 -460.10044922 408.63398437 -461.98828125 408.515625 C-464.99163587 408.32937045 -467.99503686 408.15775095 -471 408 C-474.43305579 400.68266446 -476.8638256 394.44255617 -476.625 386.3125 C-476.61025635 385.46091309 -476.5955127 384.60932617 -476.58032227 383.73193359 C-475.74793125 361.83740417 -464.26241444 341.46239739 -448.80078125 326.43359375 C-443.41154562 321.75089668 -437.39365797 317.19682899 -431 314 C-435.29 313.67 -439.58 313.34 -444 313 C-442.91555783 308.66223133 -441.19795979 306.5342922 -438.25 303.375 C-437.75975342 302.84938477 -437.26950684 302.32376953 -436.7644043 301.78222656 C-426.52209604 291.08646177 -412.13683742 279.70786574 -397 278 C-397 277.34 -397 276.68 -397 276 C-414.85764958 278.82300568 -432.28812567 282.88820786 -447 294 C-447.66 294 -448.32 294 -449 294 C-448.21289617 279.83213109 -439.22865 270.78008116 -429.3125 261.5 C-410.74398369 245.24897185 -389.58945281 234.85635264 -366 228 C-365.32936523 227.80486816 -364.65873047 227.60973633 -363.96777344 227.40869141 C-353.45605742 224.38817155 -343.92267874 222.82662415 -333 223 C-332.896875 224.134375 -332.79375 225.26875 -332.6875 226.4375 C-332.10889499 231.19397351 -330.64926303 235.51898346 -329 240 C-328.34 240 -327.68 240 -327 240 C-326.74089844 239.03126953 -326.74089844 239.03126953 -326.4765625 238.04296875 C-321.76895789 222.25737716 -312.71085253 206.34990284 -303.46875 192.74609375 C-301.29192907 188.67613333 -300.18603673 184.36645255 -298.9375 179.9375 C-298.42920034 178.15396994 -297.91759766 176.3713772 -297.40234375 174.58984375 C-297.18054443 173.80472412 -296.95874512 173.01960449 -296.73022461 172.21069336 C-296.0030877 170.00934776 -295.08838702 168.04367454 -294 166 C-287.2793899 177.2810241 -285.44987537 191.06608318 -285 204 C-284.59910156 203.31035156 -284.19820312 202.62070313 -283.78515625 201.91015625 C-273.92490265 185.61055336 -273.92490265 185.61055336 -266.73046875 183.2578125 C-266.15941406 183.17273438 -265.58835937 183.08765625 -265 183 C-265.13277344 183.59167969 -265.26554688 184.18335938 -265.40234375 184.79296875 C-265.57894531 185.58316406 -265.75554687 186.37335938 -265.9375 187.1875 C-266.11152344 187.96480469 -266.28554688 188.74210938 -266.46484375 189.54296875 C-266.64144531 190.35378906 -266.81804687 191.16460937 -267 192 C-267.18175781 192.7528125 -267.36351562 193.505625 -267.55078125 194.28125 C-269.97555667 208.95641252 -267.97138972 225.58660139 -261.76953125 239.08203125 C-261 241 -261 241 -261 244 C-260.34 244 -259.68 244 -259 244 C-258.93683594 243.44054687 -258.87367188 242.88109375 -258.80859375 242.3046875 C-257.99098413 236.95149608 -256.49303169 232.80358245 -253.875 228.0625 C-249.75983306 220.42590742 -247.56776709 212.33842148 -245.19726562 204.02880859 C-242.80483799 195.66331712 -240.25695512 187.37251306 -237.51504517 179.11621094 C-236.89735259 177.25485726 -236.28679744 175.3911397 -235.67651367 173.52734375 C-229.72120743 155.69211614 -221.54308157 138.71270579 -213.01025391 121.98339844 C-212.36028557 120.70733687 -211.71383411 119.42947463 -211.07177734 118.14941406 C-203.04423788 102.18107247 -193.19563917 86.93192275 -182 73 C-181.38584229 72.23357178 -181.38584229 72.23357178 -180.75927734 71.45166016 C-167.97030742 55.64062279 -153.49478758 40.92926602 -137 29 C-136.13375 28.36191406 -135.2675 27.72382812 -134.375 27.06640625 C-113.07137474 11.73735538 -91.79905671 3.25162906 -65.97460938 -0.69140625 C-64.15066856 -0.97645338 -62.33270487 -1.29906639 -60.515625 -1.625 C-40.47470974 -4.88958348 -19.91123506 -3.40177556 0 0 Z " fill="#FBFBFB" transform="translate(739,14)"/>
<path d="M0 0 C14.2428153 12.59486817 27.25642614 26.10706076 38.16308594 41.6940918 C38.81446533 42.61037354 38.81446533 42.61037354 39.47900391 43.54516602 C49.28732772 57.41366221 57.59728454 72.3472359 65.22558594 87.5065918 C65.76227905 88.5716394 65.76227905 88.5716394 66.30981445 89.65820312 C68.2787816 93.65163469 69.93589641 97.66845394 71.45483398 101.85205078 C72.45360675 104.44968626 73.72978375 106.86514121 75.03808594 109.3190918 C77.84454836 114.82114405 79.93921615 120.40072397 81.94042969 126.23706055 C83.11276934 129.55182284 84.41129707 132.7721654 85.78808594 136.0065918 C87.54408471 140.14416391 89.12148342 144.27194634 90.47558594 148.55737305 C90.94099947 150.00385716 91.44232954 151.43918892 91.97558594 152.86206055 C94.14918527 158.76630873 94.82336622 164.42684865 95.16308594 170.6940918 C95.82308594 170.6940918 96.48308594 170.6940918 97.16308594 170.6940918 C97.16308594 173.9940918 97.16308594 177.2940918 97.16308594 180.6940918 C95.91773071 180.71596558 95.91773071 180.71596558 94.6472168 180.73828125 C73.17291333 180.83984932 73.17291333 180.83984932 52.16308594 184.6940918 C51.47424316 184.89131836 50.78540039 185.08854492 50.07568359 185.29174805 C24.53616179 192.74007835 2.56295636 206.47644935 -15.83691406 225.6940918 C-17.85045027 222.67378748 -18.58607806 220.47588223 -19.52832031 217.00268555 C-19.98561523 215.33882813 -19.98561523 215.33882813 -20.45214844 213.64135742 C-20.76474609 212.48313477 -21.07734375 211.32491211 -21.39941406 210.1315918 C-22.02397368 207.83814782 -22.65019178 205.54515464 -23.27832031 203.25268555 C-23.55361572 202.23489014 -23.82891113 201.21709473 -24.11254883 200.16845703 C-24.74945151 197.72076253 -24.74945151 197.72076253 -25.83691406 195.6940918 C-26.58645542 186.11067019 -19.96076906 178.29869531 -14.07128906 171.2800293 C-13.33394531 170.42666992 -12.59660156 169.57331055 -11.83691406 168.6940918 C-11.05832031 167.75823242 -10.27972656 166.82237305 -9.47753906 165.8581543 C7.7637964 145.95224881 32.40039252 131.31235492 58.16308594 125.6940918 C59.15308594 125.6940918 60.14308594 125.6940918 61.16308594 125.6940918 C61.16308594 125.0340918 61.16308594 124.3740918 61.16308594 123.6940918 C29.18549132 123.92372533 2.25202251 134.35056397 -20.46289062 157.21606445 C-24.74004593 161.81697032 -29.02739129 167.07504624 -31.83691406 172.6940918 C-32.49691406 172.6940918 -33.15691406 172.6940918 -33.83691406 172.6940918 C-34.05476562 171.64479492 -34.27261719 170.59549805 -34.49707031 169.5144043 C-36.05999247 163.27096327 -38.73171442 157.4633812 -41.27441406 151.5690918 C-41.76490234 150.41538086 -42.25539063 149.26166992 -42.76074219 148.07299805 C-45.45636347 141.74021541 -45.45636347 141.74021541 -48.47387695 135.55786133 C-50.59299443 131.10555109 -50.60857234 127.19279478 -49.18066406 122.5690918 C-44.74066227 111.8518461 -37.7833506 103.01346579 -29.83691406 94.6940918 C-29.30839844 94.09081055 -28.77988281 93.4875293 -28.23535156 92.8659668 C-13.92096134 77.15684111 9.5251756 67.72055603 30.16308594 64.6940918 C14.09940052 63.96059018 0.03565872 64.19730826 -14.83691406 70.6940918 C-15.50754883 70.98316406 -16.17818359 71.27223633 -16.86914062 71.57006836 C-35.56878349 79.91696777 -49.41114851 94.11910864 -57.83691406 112.6940918 C-62.11273398 111.26881849 -63.28066926 108.0857436 -65.46191406 104.3815918 C-70.7416541 95.6750787 -76.32344438 87.31834592 -83.39941406 79.9440918 C-85.68764626 77.30626856 -85.84980776 76.60670119 -86.39941406 72.8815918 C-84.85127193 55.65439313 -73.61570688 40.92228319 -60.78222656 30.1237793 C-45.68565343 18.48443665 -29.52818883 12.52760951 -10.83691406 9.6940918 C-35.47413744 8.30296437 -56.46826204 13.51869361 -75.59863281 29.64331055 C-85.54869487 38.75985956 -92.75854766 49.44245736 -95.83691406 62.6940918 C-98.6545144 61.38636108 -100.93371391 59.93669508 -103.30566406 57.9362793 C-103.9540625 57.39769287 -104.60246094 56.85910645 -105.27050781 56.30419922 C-106.67027047 55.12885503 -108.06866836 53.9518839 -109.46582031 52.7734375 C-112.70727174 50.08313576 -115.81197181 47.57394235 -119.55566406 45.61987305 C-122.85818235 43.87032467 -125.3211052 42.46425633 -127.83691406 39.6940918 C-130.90168795 27.01085342 -125.81650729 14.18655825 -119.51269531 3.28393555 C-109.33871221 -12.43949288 -93.61757203 -20.33459373 -75.83691406 -24.3059082 C-93.34852244 -25.33768873 -107.89081775 -19.24136211 -121.18847656 -8.0012207 C-130.11107739 1.07930226 -135.91170418 12.46303245 -137.02441406 25.1315918 C-137.14719727 26.37199219 -137.14719727 26.37199219 -137.27246094 27.63745117 C-137.47075262 29.65536061 -137.65526808 31.67461591 -137.83691406 33.6940918 C-142.98798336 33.15483045 -147.58119812 32.31599136 -152.52441406 30.6940918 C-161.00718038 27.93084337 -168.43818147 27.48124726 -177.33691406 27.4440918 C-178.54089844 27.4234668 -179.74488281 27.4028418 -180.98535156 27.3815918 C-189.34914674 27.34561848 -196.78697327 28.4679684 -204.83691406 30.6940918 C-205.63774414 30.90259766 -206.43857422 31.11110352 -207.26367188 31.32592773 C-233.59240376 38.38057235 -259.60416037 52.39748678 -279.83691406 70.6940918 C-280.49691406 70.3640918 -281.15691406 70.0340918 -281.83691406 69.6940918 C-272.18314294 54.81970124 -261.97703432 40.42973152 -250.16552734 27.18579102 C-248.97128657 25.84495839 -247.79180121 24.49101813 -246.61425781 23.13549805 C-235.74233495 10.7597952 -224.14866879 -0.58941202 -210.83691406 -10.3059082 C-209.77988281 -11.08450195 -208.72285156 -11.8630957 -207.63378906 -12.6652832 C-144.05910447 -58.0757722 -58.41868387 -50.04508969 0 0 Z " fill="#FAFAFA" transform="translate(307.8369140625,53.305908203125)"/>
<path d="M0 0 C0.66 0 1.32 0 2 0 C2.3403125 1.7325 2.3403125 1.7325 2.6875 3.5 C6.53377464 20.18451567 12.4826385 36.02953715 24.25 48.875 C29.92398799 55.45775814 31.79388558 64.30914423 34.234375 72.48217773 C34.96417925 74.88220046 35.74522551 77.25729201 36.55078125 79.6328125 C37.73262666 83.13811571 38.78610869 86.66263302 39.78588867 90.22363281 C44.12140594 105.59648228 51.03210471 119.67151704 58 134 C58.50140503 135.10021484 58.50140503 135.10021484 59.01293945 136.22265625 C59.87787178 138.17427299 59.87787178 138.17427299 62 139 C61.95359375 137.85144531 61.9071875 136.70289063 61.859375 135.51953125 C61.24015053 113.3732907 61.24015053 113.3732907 67.63671875 106.15234375 C68.08660156 105.77207031 68.53648437 105.39179687 69 105 C70.44320096 109.1720482 71.61938696 113.34288165 72.6875 117.625 C78.0036842 138.05577491 85.949377 157.0110738 96.57666016 175.19824219 C111.39398676 200.76667994 111.39398676 200.76667994 111 214 C115.16237149 210.23404484 117.22977195 205.75167656 119 200.5 C119.96814861 197.6278258 120.91571968 195.14009658 122.48046875 192.5390625 C124.16321256 189.72727979 125.21007429 186.95876126 126.3125 183.875 C127.91525509 179.58978954 129.64916086 175.64716538 131.9375 171.6875 C135.49031221 165.44039576 137.80460233 158.84817618 140.21801758 152.10571289 C141.08319223 149.77598096 142.01678464 147.48010769 142.95703125 145.1796875 C145.07436289 139.92298522 146.85794945 134.59040582 148.5625 129.1875 C149.01701538 127.75543213 149.01701538 127.75543213 149.48071289 126.29443359 C151.68086595 119.25989822 153.56671096 112.23469704 155 105 C155.66 105 156.32 105 157 105 C157.81898266 107.20611566 158.63027543 109.4145834 159.4375 111.625 C159.88996094 112.85476563 160.34242188 114.08453125 160.80859375 115.3515625 C162.69885608 121.14010353 163.11980463 126.3007096 163.0625 132.375 C163.05347656 133.62023437 163.04445313 134.86546875 163.03515625 136.1484375 C163.01775391 137.55996094 163.01775391 137.55996094 163 139 C163.66 139 164.32 139 165 139 C165.12600586 138.41460449 165.25201172 137.82920898 165.38183594 137.22607422 C165.99102828 135.0323081 166.77474989 133.35912781 167.890625 131.3828125 C168.26807861 130.70033447 168.64553223 130.01785645 169.03442383 129.31469727 C169.43556396 128.59209717 169.8367041 127.86949707 170.25 127.125 C173.80646348 120.5770924 176.60919802 114.18468453 178.9609375 107.10546875 C179.84663281 104.45837188 180.83750538 101.9371826 181.9375 99.375 C184.3459626 93.50070097 186.04237064 87.39774404 187.80639648 81.30615234 C188.94619715 77.39379133 190.13031116 73.54195153 191.5859375 69.734375 C192.76469377 66.62141647 193.68117243 63.57731065 194.5625 60.375 C196.47634791 54.53079776 199.43399553 50.27522108 203.07324219 45.42333984 C213.02677656 32.04347861 218.47909014 16.9518283 223 1 C225.55948142 3.55948142 225.43691149 4.9516038 225.87890625 8.515625 C226.6414079 13.92827082 227.63428702 19.22038208 228.83984375 24.546875 C229.00860016 25.29432983 229.17735657 26.04178467 229.35122681 26.81188965 C229.87667812 29.12536276 230.40637049 31.43782432 230.9375 33.75 C238.20972439 65.43443952 238.20972439 65.43443952 239 81 C239.08290283 82.59714844 239.08290283 82.59714844 239.16748047 84.2265625 C239.83936451 100.25878513 238.81257397 113.9841839 233 129 C230.66935231 125.50402847 230.22084552 122.36229446 229.5625 118.3125 C228.55162676 112.56849647 227.35300313 107.35438934 225 102 C224.61714844 101.01 224.23429688 100.02 223.83984375 99 C223.41832031 97.9275 222.99679687 96.855 222.5625 95.75 C222.17191406 94.75484375 221.78132812 93.7596875 221.37890625 92.734375 C219.93961028 89.88024702 218.37226098 88.11539196 216 86 C216.2165625 87.09054687 216.433125 88.18109375 216.65625 89.3046875 C222.37607817 119.5797448 218.09832227 151.15113738 202.27734375 177.9140625 C200.59825198 180.35132573 198.83161361 182.67525965 197 185 C196.14618161 186.13763332 195.2947897 187.27709019 194.4453125 188.41796875 C193.54794423 189.61278296 192.64951245 190.80679919 191.75 192 C191.32541504 192.56501221 190.90083008 193.13002441 190.46337891 193.7121582 C188.43711948 196.35064261 186.79841794 198.13438804 184 200 C184.61640049 196.50706389 185.53425198 193.36761141 186.8125 190.0625 C191.10728782 178.47911242 194.18820511 167.29258081 194.09765625 154.87890625 C194.0962413 154.13414536 194.09482635 153.38938446 194.09336853 152.62205505 C194.08781989 150.26882727 194.07527733 147.9156985 194.0625 145.5625 C194.05747835 143.95638159 194.05291661 142.35026168 194.04882812 140.74414062 C194.03786735 136.82938957 194.02063884 132.91471151 194 129 C193.34 129 192.68 129 192 129 C191.938125 130.175625 191.87625 131.35125 191.8125 132.5625 C190.37669677 144.98025768 184.73548334 156.29712114 178.95361328 167.19873047 C178.09873397 168.81350249 177.26476355 170.43930327 176.43359375 172.06640625 C169.50526085 185.33784502 159.55967516 196.85633085 150.203125 208.4765625 C140.78066508 220.22598634 132.81787479 232.39436959 125.5 245.5625 C120.51972883 254.50685263 115.35456782 262.96041706 109 271 C108.52224121 271.60650391 108.04448242 272.21300781 107.55224609 272.83789062 C106.07212126 274.69774337 104.57336477 276.54005698 103.0625 278.375 C102.37099854 279.22505615 102.37099854 279.22505615 101.66552734 280.09228516 C100.51133644 281.45516267 99.26180209 282.7360984 98 284 C97.01 284 96.02 284 95 284 C95.06856201 283.41444336 95.13712402 282.82888672 95.20776367 282.22558594 C96.90686748 266.70396083 97.85770515 250.72618882 92 236 C91.60167969 234.87271484 91.60167969 234.87271484 91.1953125 233.72265625 C86.30999727 221.23020731 77.76375372 210.30860874 68.95703125 200.375 C51.47072197 180.62521997 36.33851368 156.57043876 33 130 C32.01 130 31.02 130 30 130 C29.48045947 153.75765589 30.1355445 176.36583717 41 198 C41 198.66 41 199.32 41 200 C40.34 200 39.68 200 39 200 C37.21971551 197.99756035 35.56948708 195.994164 33.9375 193.875 C33.44725342 193.23973389 32.95700684 192.60446777 32.4519043 191.94995117 C11.44918883 164.38537613 2.58582573 133.86012863 6.30322266 99.17041016 C6.98233929 94.39523224 7.90136716 89.69534749 9 85 C5.80417333 87.67128369 4.26936081 91.10530161 2.5625 94.8125 C2.25610596 95.47757568 1.94971191 96.14265137 1.6340332 96.82788086 C-3.29865795 107.85044302 -5.62115387 119.06209532 -7 131 C-9 130 -9 130 -10.03515625 127.41015625 C-10.37417969 126.30542969 -10.71320313 125.20070313 -11.0625 124.0625 C-11.40410156 122.98097656 -11.74570312 121.89945313 -12.09765625 120.78515625 C-14.49389963 110.73338209 -14.27689357 100.34338241 -14.3125 90.0625 C-14.31578308 89.28542694 -14.31906616 88.50835388 -14.32244873 87.70773315 C-14.33896216 75.61881168 -13.14401256 64.6966904 -10 53 C-9.4054635 49.69052801 -8.88739841 46.3803893 -8.39453125 43.0546875 C-8 41 -8 41 -7 40 C-6.66905758 38.59199041 -6.38656244 37.17253259 -6.125 35.75 C-5.37138047 31.7738134 -4.47796237 27.86416709 -3.5 23.9375 C-1.6391557 16.04071911 -0.82025832 8.05783174 0 0 Z " fill="#F8F8F8" transform="translate(336,685)"/>
<path d="M0 0 C4.73381382 1.42523427 8.95774937 3.45369128 13.3125 5.75 C21.64090632 10.00629102 30.10152298 13.16164334 39 16 C39.76844238 16.25523437 40.53688477 16.51046875 41.32861328 16.7734375 C74.11716421 27.58035129 108.01298574 28.3925645 141.74609375 22.1328125 C172.72396636 16.48547804 201.89065171 19.99494073 228.75 36.8125 C242.58253643 46.65894292 254.87304009 60.15975583 258.4765625 77.26171875 C259.14872088 84.394066 255.1396428 88.58994489 251 94 C245.82590206 101.63864041 243.52915064 110.22869034 241 119 C228.7294605 119.68064626 218.37491924 117.7735956 207 113 C207 112.34 207 111.68 207 111 C205.90171875 110.82597656 205.90171875 110.82597656 204.78125 110.6484375 C201.96529662 109.99190904 199.98920935 109.07119557 197.5 107.625 C196.72785156 107.17769531 195.95570313 106.73039062 195.16015625 106.26953125 C194.44730469 105.85058594 193.73445312 105.43164062 193 105 C191.989375 104.443125 190.97875 103.88625 189.9375 103.3125 C189.298125 102.879375 188.65875 102.44625 188 102 C188 101.34 188 100.68 188 100 C189.01578125 99.95101562 190.0315625 99.90203125 191.078125 99.8515625 C199.50693339 99.4069141 207.69829465 98.61946146 216 97 C216 96.34 216 95.68 216 95 C214.824375 94.62875 214.824375 94.62875 213.625 94.25 C209.01598671 92.66068507 204.51452284 90.83792827 200 89 C200 88.34 200 87.68 200 87 C199.21625 86.9175 198.4325 86.835 197.625 86.75 C194.59356678 86.12280692 192.2285272 85.3526362 189.3984375 84.1796875 C168.62045965 75.74629515 147.14593185 70.72013519 125.35211182 65.70967102 C98.07064736 59.41991249 70.6652984 52.22940012 45.98510742 38.67797852 C43.34000827 37.22593994 40.87072474 35.95690825 38 35 C44.12433046 45.15075197 50.51135013 54.80576029 58 64 C58.42893555 64.53189941 58.85787109 65.06379883 59.29980469 65.61181641 C72.99580459 82.52114764 90.12788781 101.24750119 111 109 C111 109.66 111 110.32 111 111 C111.804375 111.2475 112.60875 111.495 113.4375 111.75 C116.04939953 112.66645598 118.33964026 113.62418024 120.8125 114.8125 C125.10440797 116.73918566 129.50198552 118.20304279 134 119.5625 C134.63268799 119.76012939 135.26537598 119.95775879 135.91723633 120.16137695 C149.63131754 124.18362168 163.28870701 125.44094151 177.5 125.5625 C186.50566243 125.66154028 195.44386632 125.89081986 204.40625 126.83984375 C205.1242981 126.90828995 205.84234619 126.97673615 206.58215332 127.04725647 C209.55982005 127.39734675 211.59619126 127.67842086 213.97460938 129.57250977 C214.48217773 130.27911743 214.48217773 130.27911743 215 131 C213.67162109 131.34611328 213.67162109 131.34611328 212.31640625 131.69921875 C203.89169302 133.91717135 195.51900067 136.2732096 187.16796875 138.75390625 C186.49072754 138.95072998 185.81348633 139.14755371 185.11572266 139.3503418 C183.67040337 139.79414455 182.23739272 140.27959992 180.81787109 140.80004883 C173.07964186 143.49626507 165.35487532 143.59872869 157.25 143.5625 C156.52145813 143.56101959 155.79291626 143.55953918 155.04229736 143.55801392 C128.29844334 143.39231424 103.06758337 133.52126425 82 117 C81.07574219 116.28328125 80.15148437 115.5665625 79.19921875 114.828125 C76.41428394 112.60647969 73.69778933 110.32660413 71 108 C70.50612793 107.57460938 70.01225586 107.14921875 69.50341797 106.7109375 C63.12221023 101.17016175 57.43411648 95.46342371 52.203125 88.79296875 C49.92674472 85.90713205 47.53362102 83.1509736 45.125 80.375 C39.51618966 73.66010439 34.8699121 66.41592217 30.24902344 58.99853516 C29.15221867 57.24356177 28.03476165 55.50153072 26.9140625 53.76171875 C19.29604932 41.77500822 12.5830573 29.06830823 6.91113281 16.04931641 C5.16375964 12.1191314 3.14333836 8.32483648 1.171875 4.50390625 C0 2 0 2 0 0 Z " fill="#F8F8F8" transform="translate(10,267)"/>
<path d="M0 0 C-0.97940727 5.9281659 -3.58782102 10.87839892 -6.1875 16.25 C-6.71633789 17.34594482 -7.24517578 18.44188965 -7.79003906 19.57104492 C-15.77252616 35.89558012 -24.36598832 52.22407567 -35 67 C-35.64066406 67.91136719 -36.28132812 68.82273437 -36.94140625 69.76171875 C-53.57162551 93.09609685 -72.66836107 112.79150469 -97.625 127.0625 C-98.31247314 127.45719482 -98.99994629 127.85188965 -99.70825195 128.25854492 C-104.63131777 131 -104.63131777 131 -108 131 C-108 131.66 -108 132.32 -108 133 C-113.26338496 134.77166226 -118.53029816 136.53183745 -123.80371094 138.2734375 C-125.56079643 138.85470545 -127.3158945 139.44197983 -129.0703125 140.03125 C-144.86164312 145.10884827 -169.90261078 146.32531006 -185.17578125 138.94921875 C-185.77777344 138.63597656 -186.37976563 138.32273437 -187 138 C-188.36427319 137.67947799 -189.74185314 137.41306696 -191.125 137.1875 C-199.2166471 135.68859549 -207.09413462 133.25635809 -215 131 C-205.59362243 121.59362243 -181.36171445 124.4624418 -168.90722656 124.41577148 C-155.02947977 124.31682078 -142.06393484 122.72870891 -129.0625 117.5625 C-127.92458008 117.13227539 -127.92458008 117.13227539 -126.76367188 116.69335938 C-118.53915465 113.54518526 -110.69356656 110.10488391 -103.25 105.375 C-102.22084473 104.72422485 -102.22084473 104.72422485 -101.17089844 104.06030273 C-86.99956649 94.96446057 -73.68910223 84.24977807 -63.328125 70.8984375 C-61.35934012 68.44736639 -59.32212826 66.1585769 -57.19921875 63.84375 C-52.79906253 58.92568752 -49.16636543 53.64183616 -45.5625 48.125 C-44.62760742 46.72121094 -44.62760742 46.72121094 -43.67382812 45.2890625 C-40.35986223 40.38425026 -40.35986223 40.38425026 -38 35 C-38.55236328 35.27150879 -39.10472656 35.54301758 -39.67382812 35.82275391 C-50.05061575 40.90153377 -60.37294591 45.76894029 -71.26171875 49.6484375 C-74.1387746 50.68862697 -76.944345 51.79412166 -79.76953125 52.9609375 C-85.08746154 55.09935918 -90.47790589 56.72757478 -96 58.25 C-97.05525879 58.54374512 -98.11051758 58.83749023 -99.19775391 59.14013672 C-110.00053475 62.09226661 -120.89703276 64.62323925 -131.80444336 67.15258789 C-142.25775298 69.57712983 -152.66217552 72.11916689 -163 75 C-163.73444336 75.20189941 -164.46888672 75.40379883 -165.22558594 75.61181641 C-174.45002778 78.16135516 -183.24517653 81.09118848 -192 85 C-193.88704647 85.83362278 -195.77575716 86.66305318 -197.66723633 87.48657227 C-199.46988124 88.27213812 -201.26826954 89.0674504 -203.06640625 89.86328125 C-206 91 -206 91 -209 91 C-209 91.66 -209 92.32 -209 93 C-209.969375 93.28875 -210.93875 93.5775 -211.9375 93.875 C-215.10664203 94.64214682 -215.10664203 94.64214682 -216 97 C-209.41586477 98.64770831 -203.21061626 99.386475 -196.4375 99.625 C-195.52419922 99.66367187 -194.61089844 99.70234375 -193.66992188 99.7421875 C-191.44680076 99.83530252 -189.22366387 99.92112166 -187 100 C-191.21905153 104.87283017 -195.95691754 107.34599638 -201.75 110.0625 C-202.67723877 110.49933105 -203.60447754 110.93616211 -204.55981445 111.38623047 C-215.94322535 116.5675106 -227.38948699 119.80066749 -240 119 C-240.32871094 117.94683594 -240.65742187 116.89367187 -240.99609375 115.80859375 C-244.44387198 105.20175825 -248.66184835 93.32390862 -256.73828125 85.265625 C-258 84 -258 84 -258.5 81.125 C-257.85854914 67.90553445 -248.29771743 53.91584689 -239 45 C-220.0350988 28.02232396 -196.74805056 19.58995629 -171.3125 19.625 C-169.71595581 19.62415405 -169.71595581 19.62415405 -168.0871582 19.62329102 C-158.12469853 19.75698099 -148.54017582 21.2196444 -138.76171875 23.02734375 C-126.70892425 25.16909422 -114.63895003 25.20491363 -102.4375 25.1875 C-101.16984802 25.18609512 -101.16984802 25.18609512 -99.87658691 25.18466187 C-80.98456531 25.13920744 -64.08362024 23.68971389 -46 18 C-44.75605469 17.61070312 -43.51210938 17.22140625 -42.23046875 16.8203125 C-40.06227072 16.14135677 -37.89427706 15.46174774 -35.7265625 14.78125 C-32.46945309 13.84798083 -29.36840921 13.31334039 -26 13 C-26 12.34 -26 11.68 -26 11 C-25.27296875 10.70867187 -24.5459375 10.41734375 -23.796875 10.1171875 C-17.16059725 7.41162811 -10.75456644 4.44824525 -4.3984375 1.13671875 C-2 0 -2 0 0 0 Z " fill="#F9F9F9" transform="translate(886,267)"/>
<path d="M0 0 C2.83703891 1.1283061 5.66535013 2.27418684 8.48828125 3.4375 C17.64165607 7.19379849 25.96084333 10.00012589 35.8984375 10.75390625 C38 11 38 11 40 12 C63.20939624 13.36633925 89.20697062 12.27687649 110.04296875 0.8828125 C112 0 112 0 115 0 C110.87282951 13.32486473 102.21609292 25.52204956 89.9140625 32.42578125 C86.61320252 34.14585684 83.26654742 35.73742541 79.8425293 37.19702148 C78.09203542 37.95989075 76.38731732 38.82535882 74.6875 39.6953125 C69.79904184 41.42491528 65.456358 41.4104406 60.3125 41.3125 C59.33152344 41.29904541 58.35054688 41.28559082 57.33984375 41.27172852 C39.7679111 40.90904522 26.16039735 36.32480448 13.62890625 23.8359375 C8.058047 17.82636274 0 8.60897058 0 0 Z " fill="#F7F7F8" transform="translate(391,738)"/>
<path d="M0 0 C0 0.66 0 1.32 0 2 C-0.65484375 2.32871094 -1.3096875 2.65742188 -1.984375 2.99609375 C-39.61969967 22.61111466 -62.01765345 60.14437789 -78 98 C-78.33 98 -78.66 98 -79 98 C-79.52304719 84.16830773 -77.85939656 71.6986922 -72 59 C-71.59136719 58.06800781 -71.18273437 57.13601563 -70.76171875 56.17578125 C-59.11859426 31.08566791 -35.3720197 11.5877924 -9.8046875 1.7734375 C-6.3875666 0.70745518 -3.58828173 0 0 0 Z " fill="#2B2B2F" transform="translate(582,367)"/>
<path d="M0 0 C14.9885942 1.52944839 29.63985844 11.66397206 41 21 C41.91265625 21.73605469 42.8253125 22.47210938 43.765625 23.23046875 C62.38515726 39.11026983 73.31038937 60.76548752 76 85 C76.1398507 88.67545131 76.13257444 92.3247419 76 96 C75.34 96 74.68 96 74 96 C73.731875 95.2471875 73.46375 94.494375 73.1875 93.71875 C66.19010824 74.75213548 56.30851973 57.03314193 44 41 C43.38769531 40.18273437 42.77539062 39.36546875 42.14453125 38.5234375 C31.16997063 24.26782267 17.57173578 12.18384902 1.9375 3.25 C1.298125 2.8375 0.65875 2.425 0 2 C0 1.34 0 0.68 0 0 Z " fill="#2A2A2E" transform="translate(318,369)"/>
<path d="M0 0 C2.11324325 6.33972976 1.94083746 13.62680887 -0.625 19.8125 C-5.13368932 28.51458569 -10.78528921 32.92842974 -20 36 C-28.1111899 36.67685716 -34.05121472 36.36002214 -41 32 C-40.47211427 28.19922274 -39.78527139 25.70904291 -37 23 C-34.0390625 22.8984375 -34.0390625 22.8984375 -30.625 23.375 C-24.59091268 24.19341644 -21.38500986 23.64679252 -16.375 20.1875 C-10.56704107 14.83806414 -10.38439006 9.56850771 -10 2 C-6.38026598 0.68373308 -3.90432869 0 0 0 Z " fill="#EFEFEF" transform="translate(595,442)"/>
<path d="M0 0 C3.46941546 0.45822468 6.67395049 0.89131683 10 2 C10.00257813 2.70125 10.00515625 3.4025 10.0078125 4.125 C10.30313844 11.37032971 11.81018547 15.84891543 17 21 C21.31640035 23.87760024 25.66626123 22.96263137 30.6640625 22.5703125 C36.15120625 22.35926851 36.15120625 22.35926851 38.65332031 24.24804688 C40.96100412 26.87935935 42 28.46135729 42 32 C33.85879311 36.11654705 25.3331345 38.0791077 16.41796875 35.15234375 C8.86366162 31.35588616 3.11918808 24.82110957 0 17 C-0.33750553 14.02722051 -0.28621287 11.11169709 -0.1875 8.125 C-0.17396484 7.34125 -0.16042969 6.5575 -0.14648438 5.75 C-0.11141789 3.83303218 -0.05762072 1.91642249 0 0 Z " fill="#EFEFF0" transform="translate(301,442)"/>
<path d="M0 0 C0.99 0 1.98 0 3 0 C3.33 1.98 3.66 3.96 4 6 C3.67 5.34 3.34 4.68 3 4 C2.34 4 1.68 4 1 4 C1.12033543 7.89213533 1.24465664 11.7841232 1.37231445 15.67602539 C1.43575206 17.63356265 1.49623818 19.59119486 1.55664062 21.54882812 C1.82699568 29.72186952 2.29682668 37.85268022 3 46 C-1.59878045 37.31211584 -1.17860102 26.13225291 -1.1875 16.5 C-1.18830566 15.66404297 -1.18911133 14.82808594 -1.18994141 13.96679688 C-1.14707955 9.21579858 -0.78728197 4.68590228 0 0 Z " fill="#404043" transform="translate(366,815)"/>
<path d="M0 0 C0.66 0 1.32 0 2 0 C2.92257316 3.91841647 3.12884844 7.56467977 3.1328125 11.5859375 C3.13410156 12.84664062 3.13539063 14.10734375 3.13671875 15.40625 C3.13285156 16.7159375 3.12898437 18.025625 3.125 19.375 C3.12886719 20.67695312 3.13273438 21.97890625 3.13671875 23.3203125 C3.13542969 24.58359375 3.13414062 25.846875 3.1328125 27.1484375 C3.13168457 28.29489746 3.13055664 29.44135742 3.12939453 30.62255859 C2.99461958 34.14043899 2.55610735 37.52584773 2 41 C1.67 41 1.34 41 1 41 C1.33 30.11 1.66 19.22 2 8 C1.01 8.33 0.02 8.66 -1 9 C-0.67 6.03 -0.34 3.06 0 0 Z " fill="#515154" transform="translate(528,814)"/>
<path d="M0 0 C0.33 0 0.66 0 1 0 C2.07624414 5.44452918 2.32192966 10.84582589 2.5625 16.375 C2.60568359 17.30183594 2.64886719 18.22867188 2.69335938 19.18359375 C2.79876186 21.45560294 2.90088606 23.72770925 3 26 C3.99 26 4.98 26 6 26 C5.01 29.3 4.02 32.6 3 36 C2.34 36 1.68 36 1 36 C0.67 24.12 0.34 12.24 0 0 Z " fill="#AFAFB0" transform="translate(604,659)"/>
<path d="M0 0 C2.42130331 3.63195496 2.21022785 5.38349348 2.125 9.6875 C2.10695313 10.86699219 2.08890625 12.04648438 2.0703125 13.26171875 C2.04710937 14.16535156 2.02390625 15.06898438 2 16 C1.67 16 1.34 16 1 16 C1 13.36 1 10.72 1 8 C-2.3021228 6.8992924 -4.94083279 6.79372928 -8.41796875 6.68359375 C-9.67158203 6.64169922 -10.92519531 6.59980469 -12.21679688 6.55664062 C-14.18229492 6.49766602 -14.18229492 6.49766602 -16.1875 6.4375 C-17.52279978 6.39429008 -18.85808652 6.350675 -20.19335938 6.30664062 C-23.46213297 6.20043498 -26.73098333 6.09839003 -30 6 C-30 5.67 -30 5.34 -30 5 C-20.1 5 -10.2 5 0 5 C0 3.35 0 1.7 0 0 Z " fill="#48484B" transform="translate(405,229)"/>
<path d="M0 0 C0.66 0.33 1.32 0.66 2 1 C-4.27 7.27 -10.54 13.54 -17 20 C-17.66 19.67 -18.32 19.34 -19 19 C-6.51480638 5.18223235 -6.51480638 5.18223235 0 0 Z " fill="#454548" transform="translate(299,199)"/>
<path d="M0 0 C2.39591038 -0.02712351 4.79150957 -0.0468982 7.1875 -0.0625 C7.86103516 -0.07087891 8.53457031 -0.07925781 9.22851562 -0.08789062 C12.95434131 -0.10606538 16.3788042 0.10700608 20 1 C20 1.33 20 1.66 20 2 C17.69 2 15.38 2 13 2 C13 2.66 13 3.32 13 4 C14.32 4.33 15.64 4.66 17 5 C15 6 15 6 13.046875 5.51171875 C12.28890625 5.23972656 11.5309375 4.96773437 10.75 4.6875 C9.55310547 4.26597656 9.55310547 4.26597656 8.33203125 3.8359375 C7.56246094 3.56007813 6.79289063 3.28421875 6 3 C4.824375 2.608125 3.64875 2.21625 2.4375 1.8125 C1.633125 1.544375 0.82875 1.27625 0 1 C0 0.67 0 0.34 0 0 Z " fill="#58585B" transform="translate(662,28)"/>
<path d="M0 0 C0.66 0.33 1.32 0.66 2 1 C-3.61 6.61 -9.22 12.22 -15 18 C-15.66 17.67 -16.32 17.34 -17 17 C-11.83794309 10.72690435 -6.12627407 5.3250511 0 0 Z " fill="#454548" transform="translate(569,438)"/>
<path d="M0 0 C0.66 0.33 1.32 0.66 2 1 C-0.94127212 5.04424916 -4.32426846 8.0787314 -8.109375 11.2890625 C-10.18923568 13.07360307 -10.18923568 13.07360307 -12.25 15.875 C-14.22266956 18.27038446 -15.06597342 18.43016839 -18 19 C-13.09784113 11.49625682 -6.67197305 5.87306366 0 0 Z " fill="#D7D7D8" transform="translate(313,205)"/>
<path d="M0 0 C0 0.66 0 1.32 0 2 C-4.95 4.475 -4.95 4.475 -10 7 C-10.33 6.34 -10.66 5.68 -11 5 C-12.98 5.33 -14.96 5.66 -17 6 C-14.09083887 3.59032361 -11.56302424 2.34602049 -7.9375 1.3125 C-7.08027344 1.06113281 -6.22304688 0.80976563 -5.33984375 0.55078125 C-3 0 -3 0 0 0 Z " fill="#606063" transform="translate(582,367)"/>
<path d="M0 0 C0.66 0.33 1.32 0.66 2 1 C-2.95 5.95 -7.9 10.9 -13 16 C-13.66 15.67 -14.32 15.34 -15 15 C-10.28109462 9.59947495 -5.69641143 4.38185495 0 0 Z " fill="#464649" transform="translate(237,78)"/>
<path d="M0 0 C0.66 0.33 1.32 0.66 2 1 C-3.28 6.28 -8.56 11.56 -14 17 C-14.66 16.67 -15.32 16.34 -16 16 C-5.62642369 4.29384966 -5.62642369 4.29384966 0 0 Z " fill="#464649" transform="translate(274,134)"/>
<path d="M0 0 C0.99 0 1.98 0 3 0 C3.33 1.98 3.66 3.96 4 6 C3.67 5.34 3.34 4.68 3 4 C2.34 4 1.68 4 1 4 C0.67 11.59 0.34 19.18 0 27 C-0.33 27 -0.66 27 -1 27 C-1.02932572 23.81251971 -1.04690739 20.62507472 -1.0625 17.4375 C-1.07087891 16.54224609 -1.07925781 15.64699219 -1.08789062 14.72460938 C-1.10629571 9.70002057 -0.86266398 4.95182709 0 0 Z " fill="#7B7B7D" transform="translate(366,815)"/>
<path d="M0 0 C1.12591553 0.00523682 2.25183105 0.01047363 3.41186523 0.01586914 C4.62680664 0.0190918 5.84174805 0.02231445 7.09350586 0.02563477 C8.37290039 0.03401367 9.65229492 0.04239258 10.97045898 0.05102539 C12.2537207 0.05553711 13.53698242 0.06004883 14.85913086 0.06469727 C18.04211921 0.07652994 21.22501661 0.09301471 24.40795898 0.11352539 C24.40795898 0.44352539 24.40795898 0.77352539 24.40795898 1.11352539 C23.54630127 1.15110962 23.54630127 1.15110962 22.66723633 1.18945312 C20.03896177 1.30622414 17.41097503 1.42857958 14.78295898 1.55102539 C13.87932617 1.5903418 12.97569336 1.6296582 12.04467773 1.67016602 C8.24130399 1.85061805 4.63409094 2.07115699 0.88452148 2.77368164 C0.06725586 2.88583008 -0.75000977 2.99797852 -1.59204102 3.11352539 C-2.25204102 2.45352539 -2.91204102 1.79352539 -3.59204102 1.11352539 C-2.59204102 0.11352539 -2.59204102 0.11352539 0 0 Z " fill="#404043" transform="translate(495.592041015625,233.886474609375)"/>
<path d="M0 0 C0.66 0.33 1.32 0.66 2 1 C-3.28 6.28 -8.56 11.56 -14 17 C-14 12.08113186 -10.31173311 9.3948461 -7 6 C-4.72300284 3.91201998 -2.39497582 1.9550823 0 0 Z " fill="#CFCFD0" transform="translate(654,306)"/>
<path d="M0 0 C1.27230469 0.00902344 2.54460937 0.01804687 3.85546875 0.02734375 C5.31919922 0.04474609 5.31919922 0.04474609 6.8125 0.0625 C6.4825 0.7225 6.1525 1.3825 5.8125 2.0625 C3.30859375 2.6953125 3.30859375 2.6953125 0.25 3.1875 C-0.76191406 3.35507812 -1.77382812 3.52265625 -2.81640625 3.6953125 C-3.99009766 3.87707031 -3.99009766 3.87707031 -5.1875 4.0625 C-5.5175 3.4025 -5.8475 2.7425 -6.1875 2.0625 C-8.21213255 1.41036708 -8.21213255 1.41036708 -10.1875 1.0625 C-6.62704823 -0.12431726 -3.74941663 -0.03439832 0 0 Z " fill="#49494C" transform="translate(226.1875,27.9375)"/>
<path d="M0 0 C0 3.96 0 7.92 0 12 C-0.99 12 -1.98 12 -3 12 C-3 8.37 -3 4.74 -3 1 C-1 0 -1 0 0 0 Z " fill="#5D5D60" transform="translate(525,569)"/>
<path d="M0 0 C0.66 0.33 1.32 0.66 2 1 C-2.62 5.62 -7.24 10.24 -12 15 C-12 10.09687565 -8.29800369 7.38658643 -5 4 C-3.37458956 2.61667196 -1.72614587 1.25537882 0 0 Z " fill="#CFCFD0" transform="translate(203,41)"/>
<path d="M0 0 C-0.66 1.32 -1.32 2.64 -2 4 C-1.01 4.33 -0.02 4.66 1 5 C-0.62580966 4.88601335 -2.25067157 4.75844341 -3.875 4.625 C-4.77992188 4.55539062 -5.68484375 4.48578125 -6.6171875 4.4140625 C-9 4 -9 4 -11 2 C-7.17010894 0.19769832 -4.21878192 -0.19622241 0 0 Z " fill="#C8C8C9" transform="translate(682,395)"/>
<path d="M0 0 C0.33 0 0.66 0 1 0 C1.85298376 3.67387495 2.10789471 7.0447393 2.0625 10.8125 C2.05347656 11.78832031 2.04445313 12.76414062 2.03515625 13.76953125 C2.02355469 14.50558594 2.01195312 15.24164063 2 16 C1.34 16 0.68 16 0 16 C-0.66 13.69 -1.32 11.38 -2 9 C-1.34 9 -0.68 9 0 9 C0 6.03 0 3.06 0 0 Z " fill="#5C5C5E" transform="translate(392,449)"/>
<path d="M0 0 C6.6 0 13.2 0 20 0 C15.78492722 3.16130459 14.93928888 3.3367697 10 3 C10 2.67 10 2.34 10 2 C6.7 1.67 3.4 1.34 0 1 C0 0.67 0 0.34 0 0 Z " fill="#BFBFC0" transform="translate(707,392)"/>
<path d="M0 0 C0.66 0.33 1.32 0.66 2 1 C-2.29 5.29 -6.58 9.58 -11 14 C-11 9.82308582 -8.77013484 7.86318847 -6 5 C-4.05228995 3.24842937 -2.05675499 1.62627139 0 0 Z " fill="#4D4D51" transform="translate(192,40)"/>
<path d="M0 0 C0.99 0.33 1.98 0.66 3 1 C2.67 5.29 2.34 9.58 2 14 C1.34 14 0.68 14 0 14 C0 9.38 0 4.76 0 0 Z " fill="#404044" transform="translate(372,567)"/>
<path d="M0 0 C4.05606165 0.46800711 7.46588679 0.87953208 11 3 C10.01 3 9.02 3 8 3 C8.33 3.99 8.66 4.98 9 6 C5.59687262 4.94124926 2.98646769 3.99097846 0 2 C0 1.34 0 0.68 0 0 Z " fill="#49494C" transform="translate(318,369)"/>
<path d="M0 0 C5.75 1.75 5.75 1.75 8 4 C6.35 5.32 4.7 6.64 3 8 C0 2.25 0 2.25 0 0 Z " fill="#E4E4E5" transform="translate(10,267)"/>
<path d="M0 0 C0.66 0 1.32 0 2 0 C2.66 3.63 3.32 7.26 4 11 C2.68 10.67 1.36 10.34 0 10 C-0.33 10.66 -0.66 11.32 -1 12 C-0.67 8.04 -0.34 4.08 0 0 Z " fill="#C0C0C1" transform="translate(336,685)"/>
<path d="M0 0 C-0.33 1.65 -0.66 3.3 -1 5 C-1.99 5 -2.98 5 -4 5 C-5.89739368 6.5334075 -5.89739368 6.5334075 -7.6875 8.5 C-8.31011719 9.1496875 -8.93273437 9.799375 -9.57421875 10.46875 C-10.27998047 11.22671875 -10.27998047 11.22671875 -11 12 C-11.66 11.67 -12.32 11.34 -13 11 C-11.21427748 9.16052663 -9.42197551 7.32842259 -7.625 5.5 C-7.11710937 4.97535156 -6.60921875 4.45070313 -6.0859375 3.91015625 C-2.2265625 0 -2.2265625 0 0 0 Z " fill="#38383B" transform="translate(285,549)"/>
<path d="M0 0 C0 0.66 0 1.32 0 2 C-3.83724172 2.90413673 -7.37502274 3.10576898 -11.3125 3.0625 C-12.38113281 3.05347656 -13.44976562 3.04445313 -14.55078125 3.03515625 C-15.35902344 3.02355469 -16.16726563 3.01195312 -17 3 C-11.72346191 -0.51769206 -6.13607598 -0.10579441 0 0 Z " fill="#767679" transform="translate(342,290)"/>
<path d="M0 0 C0.66 0.33 1.32 0.66 2 1 C-1.3 4.3 -4.6 7.6 -8 11 C-8 7.45459812 -7.40614728 6.93992636 -5.125 4.375 C-4.59132813 3.76398438 -4.05765625 3.15296875 -3.5078125 2.5234375 C-2 1 -2 1 0 0 Z " fill="#D3D3D3" transform="translate(554,495)"/>
<path d="M0 0 C2.39763185 2.39763185 2.34280586 3.33273498 2.625 6.625 C2.69976563 7.44226563 2.77453125 8.25953125 2.8515625 9.1015625 C2.92503906 10.04128906 2.92503906 10.04128906 3 11 C-1.875 9.25 -1.875 9.25 -3 7 C-2.01 6.67 -1.02 6.34 0 6 C0 4.02 0 2.04 0 0 Z " fill="#BCBCBD" transform="translate(604,298)"/>
<path d="M0 0 C0.66 0 1.32 0 2 0 C1.67 3.3 1.34 6.6 1 10 C0.34 9.01 -0.32 8.02 -1 7 C-1.66 7 -2.32 7 -3 7 C-1.125 1.125 -1.125 1.125 0 0 Z " fill="#5D5D60" transform="translate(343,770)"/>
<path d="M0 0 C2.96052484 3.36423277 3.92289822 6.69159287 5 11 C4.34 11 3.68 11 3 11 C-1.08529742 5.98092031 -1.08529742 5.98092031 -0.75 2.125 C-0.5025 1.42375 -0.255 0.7225 0 0 Z " fill="#B4B4B6" transform="translate(372,874)"/>
<path d="M0 0 C-1.15585285 3.91211733 -2.35534962 6.8745041 -5 10 C-5 7 -5 4 -5 1 C-3 0 -3 0 0 0 Z " fill="#D6D6D7" transform="translate(506,738)"/>
<path d="M0 0 C2.75 2.4375 2.75 2.4375 5 5 C0.51474352 4.343621 -3.66914029 3.29925791 -8 2 C-6.66666667 1.66666667 -5.33333333 1.33333333 -4 1 C-3.360625 0.71125 -2.72125 0.4225 -2.0625 0.125 C-1.381875 0.08375 -0.70125 0.0425 0 0 Z " fill="#B4B4B5" transform="translate(657,498)"/>
<path d="M0 0 C4.51617599 -0.07654536 8.59085217 -0.10228696 13 1 C13 1.33 13 1.66 13 2 C4.05194805 3.35064935 4.05194805 3.35064935 0 2 C0 1.34 0 0.68 0 0 Z " fill="#7D7D80" transform="translate(555,290)"/>
<path d="M0 0 C2.42130331 3.63195496 2.21022785 5.38349348 2.125 9.6875 C2.10695313 10.86699219 2.08890625 12.04648438 2.0703125 13.26171875 C2.03550781 14.61716797 2.03550781 14.61716797 2 16 C1.67 16 1.34 16 1 16 C1 13.36 1 10.72 1 8 C0.01 7.67 -0.98 7.34 -2 7 C-1.34 4.69 -0.68 2.38 0 0 Z " fill="#A0A0A2" transform="translate(405,229)"/>
<path d="M0 0 C0.99 0 1.98 0 3 0 C2.67 2.97 2.34 5.94 2 9 C1.34 8.67 0.68 8.34 0 8 C-0.6875 4.5 -0.6875 4.5 -1 1 C-0.67 0.67 -0.34 0.34 0 0 Z " fill="#C8C8C9" transform="translate(327,807)"/>
<path d="M0 0 C0.66 0.33 1.32 0.66 2 1 C1.0409375 1.6496875 1.0409375 1.6496875 0.0625 2.3125 C-3.1101168 6.44651583 -2.82469028 10.91601822 -3 16 C-3.33 16 -3.66 16 -4 16 C-4.1080023 13.89695523 -4.18558987 11.79233091 -4.25 9.6875 C-4.31960938 7.92986328 -4.31960938 7.92986328 -4.390625 6.13671875 C-4 3 -4 3 -1.984375 1.08203125 C-1.32953125 0.72496094 -0.6746875 0.36789062 0 0 Z " fill="#B1B1B3" transform="translate(613,436)"/>
<path d="M0 0 C0.66 0.99 1.32 1.98 2 3 C0.63016497 6.16115776 0.0109362 6.9927092 -3 9 C-2.44271087 5.65626525 -1.64826111 2.96687001 0 0 Z " fill="#B4B4B5" transform="translate(523,876)"/>
<path d="M0 0 C2 2 2 2 2.125 5.625 C2.08375 6.73875 2.0425 7.8525 2 9 C1.01 9 0.02 9 -1 9 C-2.60031344 5.79937313 -1.03173691 3.27728194 0 0 Z " fill="#CCCCCD" transform="translate(559,686)"/>
<path d="M0 0 C2.64 0 5.28 0 8 0 C8 0.66 8 1.32 8 2 C9.32 2.33 10.64 2.66 12 3 C9.47946405 4.26026798 8.1457902 3.91874445 5.375 3.5625 C4.14910156 3.40974609 4.14910156 3.40974609 2.8984375 3.25390625 C2.27195312 3.17011719 1.64546875 3.08632813 1 3 C0.67 2.01 0.34 1.02 0 0 Z " fill="#A3A3A4" transform="translate(315,367)"/>
<path d="M0 0 C0.33 0.99 0.66 1.98 1 3 C1.66 3.33 2.32 3.66 3 4 C3.33 4.66 3.66 5.32 4 6 C2.02 6.66 0.04 7.32 -2 8 C-1.34 5.36 -0.68 2.72 0 0 Z " fill="#A7A7A8" transform="translate(490,231)"/>
<path d="M0 0 C0.33 0 0.66 0 1 0 C1 2.31 1 4.62 1 7 C1.99 7.33 2.98 7.66 4 8 C3.34 8.66 2.68 9.32 2 10 C1.01 10 0.02 10 -1 10 C-0.67 6.7 -0.34 3.4 0 0 Z " fill="#CDCDCE" transform="translate(432,959)"/>
<path d="M0 0 C0.99 0.33 1.98 0.66 3 1 C4.1875 3.5625 4.1875 3.5625 5 6 C4.01 5.67 3.02 5.34 2 5 C1.34 5.66 0.68 6.32 0 7 C0 4.69 0 2.38 0 0 Z " fill="#5B5B5E" transform="translate(552,771)"/>
<path d="M0 0 C2.475 0.99 2.475 0.99 5 2 C5 2.99 5 3.98 5 5 C4.34 5 3.68 5 3 5 C2.67 5.66 2.34 6.32 2 7 C0.5393715 4.35261084 0 3.10551666 0 0 Z " fill="#DFDFE0" transform="translate(391,738)"/>
<path d="M0 0 C0.94875 0.04125 1.8975 0.0825 2.875 0.125 C2.875 0.455 2.875 0.785 2.875 1.125 C1.225 1.125 -0.425 1.125 -2.125 1.125 C-2.393125 1.764375 -2.66125 2.40375 -2.9375 3.0625 C-4.125 5.125 -4.125 5.125 -7.125 6.125 C-4.34782609 0.17391304 -4.34782609 0.17391304 0 0 Z " fill="#4E4E51" transform="translate(402.125,645.875)"/>
<path d="M0 0 C3.3 0 6.6 0 10 0 C10 0.33 10 0.66 10 1 C8.35 1 6.7 1 5 1 C5.33 1.99 5.66 2.98 6 4 C1.125 2.25 1.125 2.25 0 0 Z " fill="#3F3F42" transform="translate(560,292)"/>
<path d="M0 0 C1.5625 1.25 1.5625 1.25 3 3 C2.875 5.125 2.875 5.125 2 7 C1.01 7.33 0.02 7.66 -1 8 C-0.67 5.36 -0.34 2.72 0 0 Z " fill="#D7D7D8" transform="translate(444,180)"/>
<path d="M0 0 C0.99 0 1.98 0 3 0 C2.40138258 2.35171131 1.73075648 4.6859378 1 7 C0.01 7.495 0.01 7.495 -1 8 C-1.04241723 5.66705225 -1.04092937 3.33297433 -1 1 C-0.67 0.67 -0.34 0.34 0 0 Z " fill="#D4D4D5" transform="translate(607,685)"/>
<path d="M0 0 C0.33 0.66 0.66 1.32 1 2 C1.66 2.33 2.32 2.66 3 3 C1.35 4.32 -0.3 5.64 -2 7 C-2.66 6.67 -3.32 6.34 -4 6 C-2.68 4.02 -1.36 2.04 0 0 Z " fill="#BBBBBC" transform="translate(30,117)"/>
<path d="M0 0 C0 0.33 0 0.66 0 1 C-1.65 1 -3.3 1 -5 1 C-5 1.66 -5 2.32 -5 3 C-7.64 2.67 -10.28 2.34 -13 2 C-13 1.67 -13 1.34 -13 1 C-8.59085217 -0.10228696 -4.51617599 -0.07654536 0 0 Z " fill="#B7B7B8" transform="translate(171,13)"/>
<path d="M0 0 C1.134375 0.020625 2.26875 0.04125 3.4375 0.0625 C3.4375 0.3925 3.4375 0.7225 3.4375 1.0625 C1.4575 1.0625 -0.5225 1.0625 -2.5625 1.0625 C-3.2225 2.3825 -3.8825 3.7025 -4.5625 5.0625 C-5.2225 5.0625 -5.8825 5.0625 -6.5625 5.0625 C-4.14811644 0.07277397 -4.14811644 0.07277397 0 0 Z " fill="#59595C" transform="translate(493.5625,645.9375)"/>
<path d="M0 0 C0.33 0.99 0.66 1.98 1 3 C1.99 2.67 2.98 2.34 4 2 C3.34 4.31 2.68 6.62 2 9 C0.14223235 5.86501708 -0.20140476 3.62528568 0 0 Z " fill="#CECECF" transform="translate(245,597)"/>
<path d="M0 0 C0.99 0 1.98 0 3 0 C2.75 1.875 2.75 1.875 2 4 C-0.0625 5.25 -0.0625 5.25 -2 6 C-1.34 4.02 -0.68 2.04 0 0 Z " fill="#666669" transform="translate(583,560)"/>
<path d="M0 0 C3.875 1.75 3.875 1.75 5 4 C4.34 4 3.68 4 3 4 C2.67 5.32 2.34 6.64 2 8 C0.74335022 5.09399739 0 3.20395416 0 0 Z " fill="#616164" transform="translate(611,548)"/>
<path d="M0 0 C0 0.33 0 0.66 0 1 C-4.79137588 2.6290678 -8.05632546 3.20577428 -13 2 C-13 1.67 -13 1.34 -13 1 C-8.59085217 -0.10228696 -4.51617599 -0.07654536 0 0 Z " fill="#AFAFB1" transform="translate(701,392)"/>
<path d="M0 0 C0.66 0.33 1.32 0.66 2 1 C0.02 2.98 -1.96 4.96 -4 7 C-4.99 6.67 -5.98 6.34 -7 6 C-4.69 4.02 -2.38 2.04 0 0 Z " fill="#CCCCCD" transform="translate(599,45)"/>
</svg>
